<svg width="54" height="36" viewBox="0 0 54 36" fill="none" xmlns="http://www.w3.org/2000/svg">
<path fill-rule="evenodd" clip-rule="evenodd" d="M2.92188 24.8919C0.894358 23.1683 4.21132 21.4447 6.12324 20.7984C6.39001 20.4034 6.92356 19.8504 6.92356 20.7984C6.92356 21.9834 6.65678 22.522 10.6585 25.2151C13.8598 27.3695 22.3079 27.8363 26.1317 27.8004C26.8689 27.8004 34.1422 27.0514 37.0697 26.5775C37.4728 26.5122 37.7935 26.4522 38.0034 26.4C39.3907 26.0553 42.1385 23.9583 43.339 22.9529V16.0586C43.339 14.4212 41.2937 12.8628 40.271 12.2882L39.8709 6.04025C38.1368 0.977236 24.3976 0.438618 23.1971 0.438618C21.9966 0.438618 15.5939 0.223171 10.7919 1.7313C6.95023 2.93781 4.567 5.10664 3.85559 6.04025C3.7222 8.087 3.53545 12.3959 3.85559 13.2577C4.17572 14.1195 5.85644 15.484 6.65678 16.0586L6.92356 18.4285C7.05695 18.4285 6.73681 18.6655 4.38915 19.6134C2.04149 20.5614 0.743158 22.2347 0.387451 22.9529V30.8167C2.52169 32.7988 6.52339 34.2279 8.25745 34.6948C17.4614 36.5261 27.3322 35.4488 31.4673 34.1561C34.7754 33.122 36.5806 31.4989 37.0697 30.8167V26.5775C34.1422 27.0514 26.8689 27.8004 26.1317 27.8004C22.9303 28.0159 15.9407 28.4252 13.5931 28.3391C10.6585 28.2313 5.45629 27.0464 2.92188 24.8919ZM30.4002 18.4285C26.5585 19.5488 15.9051 18.5362 11.0586 17.8899C11.4588 18.0694 12.8727 18.6655 15.3271 19.6134C17.7815 20.5614 23.286 20.7984 25.7315 20.7984C27.2877 20.7984 31.494 20.5614 35.8692 19.6134C41.3381 18.4285 40.8046 16.8126 41.4715 15.8431C42.0051 15.0675 40.6267 14.1554 39.8709 13.7964C40.0042 13.94 40.0843 14.3565 39.3373 14.8736C38.4036 15.5199 35.2022 17.0281 30.4002 18.4285ZM22.3968 11.5342C13.2196 12.2236 7.72391 9.02061 6.12324 7.33293C7.19039 4.63984 9.72474 3.77805 11.859 3.02399C13.9932 2.26992 23.1971 1.7313 27.1988 2.1622C31.2005 2.59309 40.271 4.74757 38.0034 7.33293C35.7358 9.9183 33.8683 10.6724 22.3968 11.5342Z" fill="#B6AAFC"/>
<path d="M26.1317 27.8004C22.9303 28.0159 15.9407 28.4252 13.593 28.3391C10.6585 28.2313 5.45629 27.0464 2.92188 24.8919C0.894358 23.1683 4.21132 21.4447 6.12324 20.7984C6.39001 20.4034 6.92356 19.8504 6.92356 20.7984C6.92356 21.9834 6.65678 22.522 10.6585 25.2151C13.8598 27.3695 22.3079 27.8363 26.1317 27.8004ZM26.1317 27.8004C26.8689 27.8004 34.1422 27.0514 37.0697 26.5775M43.339 16.0586C43.339 14.4212 41.2937 12.8628 40.271 12.2882L39.8709 6.04025C38.1368 0.977236 24.3976 0.438618 23.1971 0.438618C21.9966 0.438618 15.5939 0.223171 10.7919 1.7313C6.95023 2.93781 4.567 5.10664 3.85559 6.04025C3.7222 8.087 3.53545 12.3959 3.85559 13.2577C4.17572 14.1195 5.85644 15.484 6.65678 16.0586L6.92356 18.4285C7.05695 18.4285 6.73681 18.6655 4.38915 19.6134C2.04149 20.5614 0.743158 22.2347 0.387451 22.9529V30.8167C2.52169 32.7988 6.52339 34.2279 8.25745 34.6948C17.4614 36.5261 27.3322 35.4488 31.4673 34.1561C34.7754 33.122 36.5806 31.4989 37.0697 30.8167V26.5775M43.339 16.0586C43.339 17.696 43.339 21.337 43.339 22.9529M43.339 16.0586V22.9529M43.339 22.9529C42.1385 23.9583 39.3907 26.0553 38.0034 26.4C37.7935 26.4522 37.4728 26.5122 37.0697 26.5775M11.0586 17.8899C15.9051 18.5362 26.5585 19.5488 30.4002 18.4285C35.2022 17.0281 38.4036 15.5199 39.3373 14.8736C40.0843 14.3565 40.0042 13.94 39.8709 13.7964C40.6267 14.1554 42.0051 15.0675 41.4715 15.8431C40.8046 16.8126 41.3381 18.4285 35.8692 19.6134C31.494 20.5614 27.2877 20.7984 25.7315 20.7984C23.286 20.7984 17.7815 20.5614 15.3271 19.6134C12.8727 18.6655 11.4588 18.0694 11.0586 17.8899ZM6.12324 7.33293C7.72391 9.02061 13.2196 12.2236 22.3968 11.5342C33.8683 10.6724 35.7358 9.9183 38.0034 7.33293C40.271 4.74757 31.2005 2.59309 27.1988 2.1622C23.1971 1.7313 13.9932 2.26992 11.859 3.02399C9.72474 3.77805 7.19039 4.63984 6.12324 7.33293Z" stroke="#6C55F9" stroke-opacity="0.4" stroke-width="0.171079"/>
<path d="M5.87917 13.563V10.3399L6.89119 10.8956V14.341L5.87917 13.563Z" fill="black" fill-opacity="0.3"/>
<path d="M8.02972 14.341V11.3111L9.16825 11.6736V15.2302L8.02972 14.341Z" fill="black" fill-opacity="0.3"/>
<path d="M10.8128 16.2305V12.785H12.0778V16.2305H10.8128Z" fill="black" fill-opacity="0.3"/>
<path d="M13.2164 16.7862V13.2024H14.4814V16.7862H13.2164Z" fill="black" fill-opacity="0.3"/>
<path d="M16.3789 17.3419V13.563H17.644V17.3419H16.3789Z" fill="black" fill-opacity="0.3"/>
<path d="M20.3005 13.563H18.656V17.3419H20.3005V13.563Z" fill="black" fill-opacity="0.3"/>
<path d="M23.7161 13.563H21.9451V17.3419H23.7161V13.563Z" fill="black" fill-opacity="0.3"/>
<path d="M24.9811 13.563H26.4992H27.8247H29.3365L29.6618 16.7862H28.1437L27.8247 13.563H26.4992V17.3419H24.9811V13.563Z" fill="black" fill-opacity="0.3"/>
<path d="M31.8123 12.785L30.8003 13.2024L31.1389 16.2305L32.1855 15.7582L31.8123 12.785Z" fill="black" fill-opacity="0.3"/>
<path d="M34.4689 11.6736L33.4569 12.3334V12.785V15.2302L34.4689 14.6848V11.6736Z" fill="black" fill-opacity="0.3"/>
<path d="M36.7459 10.3399L35.6074 10.8956V14.341L36.7459 13.563V10.3399Z" fill="black" fill-opacity="0.3"/>
<path d="M8.02972 22.5656V19.4536L9.68369 20.6762V23.2324L8.02972 22.5656Z" fill="black" fill-opacity="0.3"/>
<path d="M12.0778 21.2319H10.8128V23.7882L12.0778 24.7884V21.2319Z" fill="black" fill-opacity="0.3"/>
<path d="M13.8489 25.1636V22.0099H15.1139V25.6776L13.8489 25.1636Z" fill="black" fill-opacity="0.3"/>
<path d="M16.3789 26.2333V22.5656H17.644V26.2333H16.3789Z" fill="black" fill-opacity="0.3"/>
<path d="M18.656 26.2333V22.899H20.3005V26.2333H18.656Z" fill="black" fill-opacity="0.3"/>
<path d="M21.4391 26.2333V22.899L23.7161 23.2324V23.7882V26.2333H21.4391Z" fill="black" fill-opacity="0.3"/>
<path d="M24.9811 23.2324V26.2333H26.4992V23.2324H24.9811Z" fill="black" fill-opacity="0.3"/>
<path d="M27.5112 26.2333V23.2324H29.3365L29.6618 26.2333H27.5112Z" fill="black" fill-opacity="0.3"/>
<path d="M31.8123 22.899H30.4412L30.8003 25.6776L32.1855 25.4192L31.8123 22.899Z" fill="black" fill-opacity="0.3"/>
<path d="M33.6676 22.0099H34.4689V24.7884L32.9414 25.1636V22.3011L33.6676 22.0099L35.6074 21.2319L37.3785 20.6762L38.011 23.7882L36.1394 24.2435L35.6074 21.2319L33.6676 22.0099Z" fill="black" fill-opacity="0.3"/>
<path d="M40.035 19.4536L39.1495 20.0093V23.2324L40.035 22.0099V19.4536Z" fill="black" fill-opacity="0.3"/>
<path d="M2.59009 31.1236V27.9004L3.85512 28.6784V31.9016L2.59009 31.1236Z" fill="black" fill-opacity="0.3"/>
<path d="M6.31132 29.6107L4.99365 29.2341L4.74143 32.1154L6.31132 32.9018V29.6107Z" fill="black" fill-opacity="0.3"/>
<path d="M9.16825 30.5679L7.52371 30.0121V33.3464L9.16825 34.0133V30.5679Z" fill="black" fill-opacity="0.3"/>
<path d="M11.4453 30.5679H10.0538V34.569H11.4453V30.5679Z" fill="black" fill-opacity="0.3"/>
<path d="M14.4814 31.1236H13.2164V34.569H14.4814V31.1236Z" fill="black" fill-opacity="0.3"/>
<path d="M17.644 31.1236H15.1139V34.569H17.644V31.1236Z" fill="black" fill-opacity="0.3"/>
<path d="M18.656 34.569V31.1236H20.3005V34.569H18.656Z" fill="black" fill-opacity="0.3"/>
<path d="M21.9451 34.569V30.8375H23.7161V34.569H21.9451Z" fill="black" fill-opacity="0.3"/>
<path d="M24.9811 34.0133V30.5679L26.4992 30.2752V34.0133H24.9811Z" fill="black" fill-opacity="0.3"/>
<path d="M27.5112 33.3464V30.0121L29.0292 29.6107V32.9018L28.1437 33.3464H27.5112Z" fill="black" fill-opacity="0.3"/>
<path d="M31.8123 31.1236V28.6784L33.4569 28.1701V30.8375L31.8123 31.1236Z" fill="black" fill-opacity="0.3"/>
<path d="M29.6618 32.4573V29.2341H30.8003V31.9016L29.6618 32.4573Z" fill="black" fill-opacity="0.3"/>
</svg>
