<svg width="40" height="40" viewBox="0 0 40 40" fill="none" xmlns="http://www.w3.org/2000/svg">
<rect width="40" height="40" rx="20" fill="#DFCCD7"/>
<path d="M12 29C11.7167 29 11.4792 28.9042 11.2875 28.7125C11.0958 28.5208 11 28.2833 11 28V25.575C11 25.3083 11.05 25.0542 11.15 24.8125C11.25 24.5708 11.3917 24.3583 11.575 24.175L24.2 11.575C24.4 11.3917 24.6208 11.25 24.8625 11.15C25.1042 11.05 25.3583 11 25.625 11C25.8917 11 26.15 11.05 26.4 11.15C26.65 11.25 26.8667 11.4 27.05 11.6L28.425 13C28.625 13.1833 28.7708 13.4 28.8625 13.65C28.9542 13.9 29 14.15 29 14.4C29 14.6667 28.9542 14.9208 28.8625 15.1625C28.7708 15.4042 28.625 15.625 28.425 15.825L15.825 28.425C15.6417 28.6083 15.4292 28.75 15.1875 28.85C14.9458 28.95 14.6917 29 14.425 29H12ZM25.6 15.8L27 14.4L25.6 13L24.2 14.4L25.6 15.8Z" fill="#020202"/>
</svg>
