<svg width="296" height="64" viewBox="0 0 296 64" fill="none" xmlns="http://www.w3.org/2000/svg">
<path fill-rule="evenodd" clip-rule="evenodd" d="M3.42193 38.9286C1.3944 37.205 4.71137 35.4814 6.62329 34.8351C6.89006 34.4401 7.4236 33.8871 7.4236 34.8351C7.4236 36.02 7.15682 36.5587 11.1585 39.2517C14.3599 41.4062 22.8079 41.873 26.6317 41.8371C27.3689 41.8371 34.6423 41.0881 37.5697 40.6142C37.9728 40.5489 38.2936 40.4889 38.5034 40.4367C39.8907 40.092 42.6385 37.995 43.839 36.9896V30.0952C43.839 28.4578 41.7937 26.8994 40.7711 26.3249L40.3709 20.0769C38.6368 15.0139 24.8977 14.4753 23.6972 14.4753C22.4967 14.4753 16.0939 14.2599 11.2919 15.768C7.45028 16.9745 5.06705 19.1433 4.35563 20.0769C4.22224 22.1237 4.0355 26.4326 4.35563 27.2944C4.67577 28.1562 6.35648 29.5207 7.15682 30.0952L7.4236 32.4652C7.55699 32.4652 7.23686 32.7021 4.88919 33.6501C2.54153 34.5981 1.2432 36.2714 0.887497 36.9896V44.8534C3.02174 46.8355 7.02343 48.2646 8.7575 48.7314C17.9614 50.5627 27.8323 49.4855 31.9673 48.1928C35.2754 47.1587 37.0806 45.5356 37.5697 44.8534V40.6142C34.6423 41.0881 27.3689 41.8371 26.6317 41.8371C23.4304 42.0526 16.4408 42.4619 14.0931 42.3757C11.1585 42.268 5.95634 41.083 3.42193 38.9286ZM30.9002 32.4652C27.0586 33.5855 16.4052 32.5729 11.5587 31.9265C11.9589 32.1061 13.3728 32.7021 15.8272 33.6501C18.2815 34.5981 23.7861 34.8351 26.2316 34.8351C27.7878 34.8351 31.994 34.5981 36.3692 33.6501C41.8382 32.4652 41.3046 30.8493 41.9716 29.8798C42.5051 29.1042 41.1268 28.1921 40.3709 27.833C40.5043 27.9767 40.5843 28.3932 39.8373 28.9103C38.9036 29.5566 35.7023 31.0647 30.9002 32.4652ZM22.8968 25.5708C13.7196 26.2603 8.22396 23.0573 6.62329 21.3696C7.69043 18.6765 10.2248 17.8147 12.359 17.0607C14.4933 16.3066 23.6972 15.768 27.6989 16.1989C31.7006 16.6298 40.7711 18.7842 38.5034 21.3696C36.2358 23.955 34.3684 24.7091 22.8968 25.5708Z" fill="#6C55F9"/>
<path d="M26.6317 41.8371C23.4304 42.0526 16.4408 42.4619 14.0931 42.3757C11.1585 42.268 5.95634 41.0831 3.42193 38.9286C1.3944 37.205 4.71137 35.4814 6.62329 34.8351C6.89006 34.4401 7.4236 33.8871 7.4236 34.8351C7.4236 36.02 7.15682 36.5587 11.1585 39.2517C14.3599 41.4062 22.8079 41.873 26.6317 41.8371ZM26.6317 41.8371C27.3689 41.8371 34.6423 41.0881 37.5697 40.6142M43.839 30.0952C43.839 28.4578 41.7937 26.8994 40.7711 26.3249L40.3709 20.0769C38.6368 15.0139 24.8977 14.4753 23.6972 14.4753C22.4967 14.4753 16.0939 14.2599 11.2919 15.768C7.45028 16.9745 5.06705 19.1433 4.35563 20.0769C4.22224 22.1237 4.0355 26.4326 4.35563 27.2944C4.67577 28.1562 6.35648 29.5207 7.15682 30.0952L7.4236 32.4652C7.55699 32.4652 7.23686 32.7021 4.88919 33.6501C2.54153 34.5981 1.2432 36.2714 0.887497 36.9896V44.8534C3.02174 46.8355 7.02343 48.2646 8.7575 48.7314C17.9614 50.5627 27.8323 49.4855 31.9673 48.1928C35.2754 47.1587 37.0806 45.5356 37.5697 44.8534V40.6142M43.839 30.0952C43.839 31.7326 43.839 35.3737 43.839 36.9896M43.839 30.0952V36.9896M43.839 36.9896C42.6385 37.995 39.8907 40.092 38.5034 40.4367C38.2936 40.4889 37.9728 40.5489 37.5697 40.6142M11.5587 31.9265C16.4052 32.5729 27.0586 33.5855 30.9002 32.4652C35.7023 31.0647 38.9036 29.5566 39.8373 28.9103C40.5843 28.3932 40.5043 27.9767 40.3709 27.833C41.1268 28.1921 42.5051 29.1042 41.9716 29.8798C41.3046 30.8493 41.8382 32.4652 36.3692 33.6501C31.994 34.5981 27.7878 34.8351 26.2316 34.8351C23.7861 34.8351 18.2815 34.5981 15.8272 33.6501C13.3728 32.7021 11.9589 32.1061 11.5587 31.9265ZM6.62329 21.3696C8.22396 23.0573 13.7196 26.2603 22.8968 25.5708C34.3684 24.7091 36.2358 23.955 38.5034 21.3696C40.7711 18.7842 31.7006 16.6298 27.6989 16.1989C23.6972 15.768 14.4933 16.3066 12.359 17.0607C10.2248 17.8147 7.69043 18.6765 6.62329 21.3696Z" stroke="#6C55F9" stroke-opacity="0.4" stroke-width="0.171079"/>
<path d="M6.37923 27.5997V24.3766L7.39126 24.9323V28.3777L6.37923 27.5997Z" fill="black" fill-opacity="0.3"/>
<path d="M8.52978 28.3777V25.3478L9.66831 25.7103V29.2668L8.52978 28.3777Z" fill="black" fill-opacity="0.3"/>
<path d="M11.3129 30.2671V26.8217H12.5779V30.2671H11.3129Z" fill="black" fill-opacity="0.3"/>
<path d="M13.7164 30.8228V27.2391H14.9814V30.8228H13.7164Z" fill="black" fill-opacity="0.3"/>
<path d="M16.879 31.3785V27.5997H18.144V31.3785H16.879Z" fill="black" fill-opacity="0.3"/>
<path d="M20.8006 27.5997H19.156V31.3785H20.8006V27.5997Z" fill="black" fill-opacity="0.3"/>
<path d="M24.2162 27.5997H22.4451V31.3785H24.2162V27.5997Z" fill="black" fill-opacity="0.3"/>
<path d="M25.4812 27.5997H26.9992H28.3248H29.8365L30.1618 30.8228H28.6438L28.3248 27.5997H26.9992V31.3785H25.4812V27.5997Z" fill="black" fill-opacity="0.3"/>
<path d="M32.3124 26.8217L31.3004 27.2391L31.639 30.2671L32.6856 29.7949L32.3124 26.8217Z" fill="black" fill-opacity="0.3"/>
<path d="M34.9689 25.7103L33.9569 26.3701V26.8217V29.2668L34.9689 28.7214V25.7103Z" fill="black" fill-opacity="0.3"/>
<path d="M37.246 24.3766L36.1075 24.9323V28.3777L37.246 27.5997V24.3766Z" fill="black" fill-opacity="0.3"/>
<path d="M8.52978 36.6022V33.4902L10.1838 34.7128V37.2691L8.52978 36.6022Z" fill="black" fill-opacity="0.3"/>
<path d="M12.5779 35.2685H11.3129V37.8248L12.5779 38.8251V35.2685Z" fill="black" fill-opacity="0.3"/>
<path d="M14.3489 39.2003V36.0465H15.614V39.7142L14.3489 39.2003Z" fill="black" fill-opacity="0.3"/>
<path d="M16.879 40.2699V36.6022H18.144V40.2699H16.879Z" fill="black" fill-opacity="0.3"/>
<path d="M19.156 40.2699V36.9357H20.8006V40.2699H19.156Z" fill="black" fill-opacity="0.3"/>
<path d="M21.9391 40.2699V36.9357L24.2162 37.2691V37.8248V40.2699H21.9391Z" fill="black" fill-opacity="0.3"/>
<path d="M25.4812 37.2691V40.2699H26.9992V37.2691H25.4812Z" fill="black" fill-opacity="0.3"/>
<path d="M28.0113 40.2699V37.2691H29.8365L30.1618 40.2699H28.0113Z" fill="black" fill-opacity="0.3"/>
<path d="M32.3124 36.9357H30.9413L31.3004 39.7142L32.6856 39.4558L32.3124 36.9357Z" fill="black" fill-opacity="0.3"/>
<path d="M34.1676 36.0465H34.9689V38.8251L33.4415 39.2003V36.3377L34.1676 36.0465L36.1075 35.2685L37.8785 34.7128L38.511 37.8248L36.6394 38.2802L36.1075 35.2685L34.1676 36.0465Z" fill="black" fill-opacity="0.3"/>
<path d="M40.5351 33.4902L39.6496 34.046V37.2691L40.5351 36.0465V33.4902Z" fill="black" fill-opacity="0.3"/>
<path d="M3.09015 45.1602V41.9371L4.35518 42.7151V45.9382L3.09015 45.1602Z" fill="black" fill-opacity="0.3"/>
<path d="M6.81138 43.6474L5.49371 43.2708L5.24149 46.1521L6.81138 46.9385V43.6474Z" fill="black" fill-opacity="0.3"/>
<path d="M9.66831 44.6045L8.02377 44.0488V47.3831L9.66831 48.0499V44.6045Z" fill="black" fill-opacity="0.3"/>
<path d="M11.9454 44.6045H10.5538V48.6056H11.9454V44.6045Z" fill="black" fill-opacity="0.3"/>
<path d="M14.9814 45.1602H13.7164V48.6056H14.9814V45.1602Z" fill="black" fill-opacity="0.3"/>
<path d="M18.144 45.1602H15.614V48.6056H18.144V45.1602Z" fill="black" fill-opacity="0.3"/>
<path d="M19.156 48.6056V45.1602H20.8006V48.6056H19.156Z" fill="black" fill-opacity="0.3"/>
<path d="M22.4451 48.6056V44.8742H24.2162V48.6056H22.4451Z" fill="black" fill-opacity="0.3"/>
<path d="M25.4812 48.0499V44.6045L26.9992 44.3119V48.0499H25.4812Z" fill="black" fill-opacity="0.3"/>
<path d="M28.0113 47.3831V44.0488L29.5293 43.6474V46.9385L28.6438 47.3831H28.0113Z" fill="black" fill-opacity="0.3"/>
<path d="M32.3124 45.1602V42.7151L33.9569 42.2067V44.8742L32.3124 45.1602Z" fill="black" fill-opacity="0.3"/>
<path d="M30.1618 46.4939V43.2708H31.3004V45.9382L30.1618 46.4939Z" fill="black" fill-opacity="0.3"/>
<path d="M65.0039 51L81.6559 13.9956H88.4224L105.127 51H97.9379L83.6119 17.6432H86.3608L72.0876 51H65.0039ZM72.6691 42.4361L74.5194 37.0441H94.5017L96.3519 42.4361H72.6691ZM106.292 61.6256C105.058 61.6256 103.895 61.4846 102.803 61.2026C101.675 60.9559 100.723 60.5507 99.9479 59.9868L101.851 55.0705C102.873 55.8106 104.159 56.1806 105.71 56.1806C106.908 56.1806 107.842 55.793 108.512 55.0176C109.181 54.2775 109.516 53.1674 109.516 51.6872V22.7709H116.124V51.5286C116.124 54.63 115.261 57.0793 113.534 58.8767C111.842 60.7093 109.428 61.6256 106.292 61.6256ZM112.794 18.1189C111.56 18.1189 110.538 17.7313 109.728 16.9559C108.952 16.1806 108.565 15.2467 108.565 14.1542C108.565 13.0264 108.952 12.0925 109.728 11.3524C110.538 10.5771 111.56 10.1894 112.794 10.1894C114.027 10.1894 115.032 10.5595 115.807 11.2996C116.618 12.0044 117.023 12.9031 117.023 13.9956C117.023 15.1586 116.635 16.1454 115.86 16.9559C115.084 17.7313 114.062 18.1189 112.794 18.1189ZM137.477 51.37C134.587 51.37 132.014 50.7533 129.759 49.5198C127.503 48.2511 125.724 46.5242 124.42 44.3392C123.116 42.1542 122.464 39.6696 122.464 36.8855C122.464 34.0661 123.116 31.5815 124.42 29.4317C125.724 27.2467 127.503 25.5374 129.759 24.304C132.014 23.0705 134.587 22.4537 137.477 22.4537C140.402 22.4537 142.992 23.0705 145.248 24.304C147.538 25.5374 149.318 27.2291 150.587 29.3789C151.891 31.5286 152.543 34.0308 152.543 36.8855C152.543 39.6696 151.891 42.1542 150.587 44.3392C149.318 46.5242 147.538 48.2511 145.248 49.5198C142.992 50.7533 140.402 51.37 137.477 51.37ZM137.477 45.7137C139.098 45.7137 140.543 45.3612 141.812 44.6564C143.08 43.9515 144.067 42.9295 144.772 41.5903C145.512 40.2511 145.882 38.6828 145.882 36.8855C145.882 35.0529 145.512 33.4846 144.772 32.1806C144.067 30.8414 143.08 29.8194 141.812 29.1145C140.543 28.4097 139.116 28.0573 137.53 28.0573C135.909 28.0573 134.464 28.4097 133.195 29.1145C131.961 29.8194 130.975 30.8414 130.235 32.1806C129.494 33.4846 129.124 35.0529 129.124 36.8855C129.124 38.6828 129.494 40.2511 130.235 41.5903C130.975 42.9295 131.961 43.9515 133.195 44.6564C134.464 45.3612 135.891 45.7137 137.477 45.7137ZM209.758 51V45.2907L209.388 44.0749V34.0837C209.388 32.1454 208.807 30.6476 207.644 29.5903C206.481 28.4978 204.718 27.9515 202.357 27.9515C200.771 27.9515 199.203 28.1982 197.652 28.6916C196.137 29.185 194.851 29.8722 193.793 30.7533L191.203 25.9427C192.718 24.7797 194.516 23.9163 196.595 23.3524C198.71 22.7533 200.895 22.4537 203.15 22.4537C207.238 22.4537 210.392 23.4405 212.613 25.4141C214.868 27.3524 215.996 30.3656 215.996 34.4537V51H209.758ZM200.877 51.37C198.762 51.37 196.912 51.0176 195.326 50.3128C193.74 49.5727 192.507 48.5683 191.626 47.2996C190.78 45.9956 190.357 44.533 190.357 42.9119C190.357 41.326 190.727 39.8987 191.467 38.63C192.243 37.3612 193.494 36.3568 195.221 35.6167C196.947 34.8767 199.238 34.5066 202.093 34.5066H210.287V38.8943H202.569C200.313 38.8943 198.798 39.2643 198.022 40.0044C197.247 40.7093 196.859 41.5903 196.859 42.6476C196.859 43.8458 197.335 44.7974 198.287 45.5022C199.238 46.207 200.56 46.5595 202.251 46.5595C203.873 46.5595 205.318 46.1894 206.586 45.4493C207.89 44.7093 208.824 43.6167 209.388 42.1718L210.498 46.1366C209.864 47.793 208.718 49.0793 207.062 49.9956C205.441 50.9119 203.379 51.37 200.877 51.37ZM236.424 51.37C234.027 51.37 231.913 50.9295 230.08 50.0485C228.247 49.1322 226.82 47.7577 225.798 45.9251C224.776 44.0573 224.265 41.7137 224.265 38.8943V22.7709H230.873V37.9956C230.873 40.533 231.437 42.4361 232.564 43.7048C233.727 44.9383 235.366 45.5551 237.481 45.5551C239.031 45.5551 240.371 45.2379 241.498 44.6035C242.661 43.9692 243.56 43.0176 244.194 41.7489C244.864 40.4802 245.199 38.9119 245.199 37.0441V22.7709H251.807V51H245.516V43.3877L246.626 45.7137C245.675 47.5463 244.283 48.9559 242.45 49.9427C240.617 50.8943 238.609 51.37 236.424 51.37ZM260.459 51V11.7753H267.067V51H260.459ZM287.759 51.37C284.658 51.37 282.261 50.5771 280.569 48.9912C278.878 47.37 278.032 44.9912 278.032 41.8546V16.533H284.64V41.696C284.64 43.0352 284.975 44.0749 285.644 44.815C286.349 45.5551 287.318 45.9251 288.552 45.9251C290.032 45.9251 291.265 45.5374 292.252 44.7621L294.102 49.467C293.327 50.1013 292.376 50.5771 291.248 50.8943C290.12 51.2115 288.957 51.37 287.759 51.37ZM273.38 28.2687V22.9824H292.199V28.2687H273.38Z" fill="#020202"/>
<path d="M168.322 51L152.146 13.9956H159.6L174.031 47.4581H169.75L184.34 13.9956H191.212L175.089 51H168.322Z" fill="#5E0035"/>
</svg>
