<svg width="32" height="32" viewBox="0 0 32 32" fill="none" xmlns="http://www.w3.org/2000/svg">
<mask id="mask0_120_284" style="mask-type:alpha" maskUnits="userSpaceOnUse" x="0" y="0" width="32" height="32">
<rect width="32" height="32" fill="#D9D9D9"/>
</mask>
<g mask="url(#mask0_120_284)">
<path d="M6.66659 23.5364C6.28881 23.5364 5.97214 23.4238 5.71659 23.1986C5.46103 22.9734 5.33325 22.6944 5.33325 22.3614C5.33325 22.0285 5.46103 21.7495 5.71659 21.5243C5.97214 21.2991 6.28881 21.1865 6.66659 21.1865H7.99992V12.9616C7.99992 11.3362 8.55547 9.89191 9.66659 8.6288C10.7777 7.36569 12.2221 6.53831 13.9999 6.14664V5.32415C13.9999 4.83458 14.1944 4.41844 14.5833 4.07573C14.9721 3.73303 15.4444 3.56168 15.9999 3.56168C16.5555 3.56168 17.0277 3.73303 17.4166 4.07573C17.8055 4.41844 17.9999 4.83458 17.9999 5.32415V6.14664C19.7777 6.53831 21.2221 7.36569 22.3333 8.6288C23.4444 9.89191 23.9999 11.3362 23.9999 12.9616V21.1865H25.3333C25.711 21.1865 26.0277 21.2991 26.2833 21.5243C26.5388 21.7495 26.6666 22.0285 26.6666 22.3614C26.6666 22.6944 26.5388 22.9734 26.2833 23.1986C26.0277 23.4238 25.711 23.5364 25.3333 23.5364H6.66659ZM15.9999 27.0614C15.2666 27.0614 14.6388 26.8313 14.1166 26.3711C13.5944 25.9109 13.3333 25.3577 13.3333 24.7114H18.6666C18.6666 25.3577 18.4055 25.9109 17.8833 26.3711C17.361 26.8313 16.7333 27.0614 15.9999 27.0614Z" fill="#020202"/>
</g>
</svg>
